:SAMPLES-PER-SECOND 30
:FULLY-SPECIFIED
:DEGREES
443
root  -24.097 39.2331 -27.1918 152.869 -86.5959 -155.48
RightUpLeg  -20.4422 -19.8878 7.48855
RightLeg  21.9545 -7.12246 0.83399
RightFoot  -1.82673 0.979947 -11.8766
RightToes  0.00048216 0.542163 -0.142577
Spine  32.6703 -1.06348 3.68875
Spine1  8.45143 -1.4018 2.88343
HEad  -2.81733 1.27609 -3.27472
LeftShoulder1  7.72417 -13.4598 -39.3226
LeftArm  -12.0277 -5.54723 -25.6264
LeftForeArm  11.1077 -63.7827 -22.6271
LeftHand  -0.25398 0.0180481 5.50724
RightShoulder  5.66167 10.436 34.658
RightArm  -14.2925 -7.95143 27.2089
RightForeArm  -7.86699 73.8877 48.7184
RightHand  0.416568 -9.65298 -12.6172
LeftUpLeg  -29.6951 4.80009 3.48968
LeftLeg  52.5255 3.80065 5.78179
LeftFoot  0.704137 0.0943378 -0.933585
LeftToes  1.06245e-005 4.65855e-005 -8.18504e-006
444
root  -24.9141 39.485 -27.3435 159.912 -86.502 -160.761
RightUpLeg  -19.9595 -18.4493 7.10738
RightLeg  20.3459 -8.31707 1.25894
RightFoot  -2.33607 0.938596 -12.0603
RightToes  0.00048216 0.542163 -0.142577
Spine  34.1672 -0.50866 3.2462
Spine1  8.31755 -0.956586 2.40908
HEad  -5.09438 0.876532 -3.20825
LeftShoulder1  7.81569 -13.766 -39.0581
LeftArm  -12.1875 -8.82352 -25.2615
LeftForeArm  8.55144 -60.9255 -19.9669
LeftHand  -0.25398 0.0180481 5.50724
RightShoulder  5.64944 10.5769 34.1707
RightArm  -14.481 -4.37077 27.9517
RightForeArm  -15.5943 71.3639 40.0989
RightHand  0.376228 -9.72134 -11.4044
LeftUpLeg  -30.9715 4.06598 3.11078
LeftLeg  38.0439 4.91999 4.56761
LeftFoot  0.599989 -0.142589 1.31192
LeftToes  1.06245e-005 4.65855e-005 -8.18504e-006
445
root  -25.7434 39.6618 -27.4479 165.613 -85.6982 -164.685
RightUpLeg  -20.5812 -19.9864 8.14163
RightLeg  19.9781 -5.71291 1.52582
RightFoot  -2.70895 0.904752 -12.1656
RightToes  0.00048216 0.542163 -0.142577
Spine  35.5157 -0.0213096 3.06655
Spine1  8.39755 -0.255415 1.43655
HEad  -7.3062 0.769374 -3.12097
LeftShoulder1  7.89791 -14.1442 -38.5766
LeftArm  -12.4662 -11.6139 -24.9762
LeftForeArm  6.57457 -58.0817 -17.7861
LeftHand  -0.25398 0.0180481 5.50724
RightShoulder  5.67491 10.862 33.5565
RightArm  -14.5382 -0.823089 28.6689
RightForeArm  -21.1861 68.4188 33.3617
RightHand  0.32004 -9.62517 -10.1799
LeftUpLeg  -30.7641 8.21195 1.55894
LeftLeg  21.9851 5.39935 2.61238
LeftFoot  1.62034 0.117932 -1.0601
LeftToes  1.06245e-005 4.65855e-005 -8.18504e-006
446
root  -26.6312 39.6376 -27.4721 162.319 -84.1924 -160.004
RightUpLeg  -22.0793 -23.3017 10.9336
RightLeg  21.7878 -0.828072 1.04394
RightFoot  -4.19774 0.732263 -12.1412
RightToes  0.00048216 0.542163 -0.142577
Spine  36.6441 0.0814159 3.80575
Spine1  9.22406 0.509919 0.13412
HEad  -9.47842 1.15411 -3.15224
LeftShoulder1  7.93392 -14.5301 -37.847
LeftArm  -13.4113 -13.9777 -25.0237
LeftForeArm  4.96093 -55.1989 -15.9268
LeftHand  -0.25398 0.0180481 5.50724
RightShoulder  5.7699 11.2765 33.0904
RightArm  -14.287 3.4453 29.1184
RightForeArm  -25.3726 64.8512 27.6814
RightHand  0.252015 -9.30558 -9.00446
LeftUpLeg  -29.2404 13.4938 0.908282
LeftLeg  8.74675 10.2149 -0.924181
LeftFoot  3.35009 0.664458 -5.30398
LeftToes  1.06245e-005 4.65855e-005 -8.18504e-006
447
root  -27.5299 39.4221 -27.4269 155.772 -82.5 -152.476
RightUpLeg  -23.5296 -24.5794 13.5443
RightLeg  24.8671 1.37222 0.275032
RightFoot  -6.24429 0.507693 -12.234
RightToes  0.00048216 0.542163 -0.142577
Spine  37.7895 -0.279497 4.6685
Spine1  10.5072 1.06676 -1.12355
HEad  -11.2627 2.23075 -3.44203
LeftShoulder1  7.84657 -14.7093 -36.964
LeftArm  -14.9704 -15.7685 -25.5016
LeftForeArm  3.50761 -52.2185 -14.2901
LeftHand  -0.25398 0.0180481 5.50724
RightShoulder  5.86473 11.6239 32.8198
RightArm  -12.9396 8.92809 29.0351
RightForeArm  -29.4675 60.3709 22.7007
RightHand  0.177669 -8.56234 -8.30252
LeftUpLeg  -27.1095 10.0407 5.36827
LeftLeg  1.85667 24.6299 -6.39632
LeftFoot  5.81652 0.641488 -4.55908
LeftToes  1.06245e-005 4.65855e-005 -8.18504e-006
448
root  -28.3535 39.1022 -27.3396 152.675 -80.9341 -148.41
RightUpLeg  -26.2512 -23.0696 14.4076
RightLeg  30.7774 0.300306 -0.0483135
RightFoot  -6.87079 0.381843 -10.858
RightToes  0.00048216 0.542163 -0.142577
Spine  39.4048 -0.527341 4.49302
Spine1  11.1765 1.26089 -1.53653
HEad  -12.5696 3.74513 -3.9256
LeftShoulder1  7.6948 -14.7006 -36.1747
LeftArm  -16.5789 -17.0742 -25.984
LeftForeArm  1.93827 -49.1169 -12.8408
LeftHand  -0.25398 0.0180481 5.50724
RightShoulder  5.89828 11.9528 32.2121
RightArm  -10.3126 14.9915 28.909
RightForeArm  -34.0684 55.2486 18.6815
RightHand  0.0986946 -7.33 -8.48554
LeftUpLeg  -27.9262 11.0178 5.50104
LeftLeg  2.46464 27.5689 -6.98936
LeftFoot  9.55953 -0.374069 1.58745
LeftToes  1.06245e-005 4.65855e-005 -8.18504e-006
449
root  -29.072 38.7607 -27.2589 154.761 -80.0486 -149.386
RightUpLeg  -32.1993 -22.1599 14.1832
RightLeg  40.9581 0.650711 0.350821
RightFoot  -3.83483 0.364582 -6.39723
RightToes  0.00048216 0.542163 -0.142577
Spine  41.5474 -0.236059 3.14174
Spine1  11.0107 1.01399 -0.876701
HEad  -14.1446 4.86369 -4.2969
LeftShoulder1  7.63753 -14.8461 -35.5418
LeftArm  -17.8613 -19.0635 -25.9043
LeftForeArm  -0.00880854 -45.6065 -11.4482
LeftHand  -0.25398 0.0180481 5.50724
RightShoulder  5.8425 12.4367 30.6917
RightArm  -7.63027 20.7532 29.4159
RightForeArm  -38.5165 50.312 15.8148
RightHand  0.00495038 -5.87657 -9.26303
LeftUpLeg  -31.219 15.8863 2.03657
LeftLeg  7.11138 20.8904 -4.8565
LeftFoot  12.7054 -2.06273 9.38174
LeftToes  1.06245e-005 4.65855e-005 -8.18504e-006
450
root  -29.6817 38.4638 -27.2369 160.182 -80.7592 -153.641
RightUpLeg  -39.5254 -21.58 12.3209
RightLeg  51.4567 1.33919 1.4109
RightFoot  2.78825 0.0838527 -0.530795
RightToes  0.00048216 0.542163 -0.142577
Spine  44.0614 -0.0471978 1.51122
Spine1  10.9695 0.538722 -0.487359
HEad  -16.6619 4.70045 -4.28112
LeftShoulder1  7.7339 -15.4825 -34.6696
LeftArm  -18.778 -23.2984 -25.285
LeftForeArm  -2.23099 -41.1288 -9.91984
LeftHand  -0.25398 0.0180481 5.50724
RightShoulder  5.65019 12.8206 28.6019
RightArm  -6.45006 26.1544 30.0061
RightForeArm  -41.9364 45.979 13.8058
RightHand  -0.107495 -4.40666 -9.81572
LeftUpLeg  -37.5002 25.5761 -7.2393
LeftLeg  13.1117 7.4888 -2.19539
LeftFoot  12.2825 -2.89554 13.4326
LeftToes  1.06245e-005 4.65855e-005 -8.18504e-006
451
root  -30.2081 38.2733 -27.2468 163.428 -82.4696 -155.53
RightUpLeg  -45.2939 -21.4122 10.3876
RightLeg  56.3544 1.19729 1.47555
RightFoot  7.52334 -0.354006 2.54322
RightToes  0.00048216 0.542163 -0.142577
Spine  46.8095 -0.661877 1.53666
Spine1  11.3195 0.440775 -1.49394
HEad  -19.6977 3.16664 -4.03319
LeftShoulder1  7.93299 -16.6783 -33.2497
LeftArm  -19.434 -29.7946 -24.6691
LeftForeArm  -4.15992 -35.7072 -8.30634
LeftHand  -0.25398 0.0180481 5.50724
RightShoulder  5.28809 12.6448 26.6776
RightArm  -7.04216 31.5327 29.4185
RightForeArm  -44.2116 41.6606 12.1053
RightHand  -0.206986 -3.0165 -9.32596
LeftUpLeg  -44.0664 31.5445 -16.0318
LeftLeg  17.8572 -1.34888 -0.486659
LeftFoot  9.83829 -2.58932 13.4455
LeftToes  1.06245e-005 4.65855e-005 -8.18504e-006
452
root  -30.6832 38.2744 -27.235 157.818 -83.2743 -148.065
RightUpLeg  -48.1872 -20.5763 10.2047
RightLeg  52.6089 -0.193256 -0.559052
RightFoot  6.55353 -0.263357 1.91278
RightToes  0.00048216 0.542163 -0.142577
Spine  49.6872 -1.64479 3.93352
Spine1  11.7053 1.05976 -2.97487
HEad  -22.5465 1.26453 -4.13761
LeftShoulder1  8.17212 -18.1349 -31.6876
LeftArm  -20.3909 -36.9327 -24.0926
LeftForeArm  -5.30023 -30.4481 -6.92606
LeftHand  -0.25398 0.0180481 5.50724
RightShoulder  4.85003 12.2212 24.6997
RightArm  -8.75012 36.8508 27.368
RightForeArm  -45.4276 36.4429 10.3306
RightHand  -0.228882 -1.8855 -7.19172
LeftUpLeg  -46.4944 30.9655 -17.0325
LeftLeg  19.5306 -1.95918 -0.369572
LeftFoot  8.71632 -2.34162 12.8832
LeftToes  1.06245e-005 4.65855e-005 -8.18504e-006
453
root  -31.1628 38.3809 -27.2831 150.046 -83.0941 -138.142
RightUpLeg  -48.1777 -18.5103 10.4165
RightLeg  41.0041 -2.37845 -2.50669
RightFoot  3.13209 -0.1101 1.08989
RightToes  0.00048216 0.542163 -0.142577
Spine  52.2598 -2.15781 6.0462
Spine1  12.1736 1.83187 -3.62235
HEad  -25.4243 0.16678 -4.90744
LeftShoulder1  8.33151 -19.2784 -30.4643
LeftArm  -22.701 -43.5599 -22.6252
LeftForeArm  -5.88672 -26.3716 -5.95665
LeftHand  -0.25398 0.0180481 5.50724
RightShoulder  4.42241 12.293 21.7023
RightArm  -11.3693 41.9426 24.8362
RightForeArm  -45.2412 30.353 8.51591
RightHand  -0.141916 -0.925308 -3.52371
LeftUpLeg  -48.1649 30.3398 -16.8158
LeftLeg  19.5857 -2.65846 -0.722414
LeftFoot  8.98756 -2.52862 13.7267
LeftToes  1.06245e-005 4.65855e-005 -8.18504e-006
454
root  -31.7107 38.3809 -27.5092 147.955 -83.8788 -133.741
RightUpLeg  -46.8687 -16.291 9.01682
RightLeg  26.9874 -3.12311 -2.05468
RightFoot  2.49506 -0.357342 2.98722
RightToes  0.00048216 0.542163 -0.142577
Spine  55.0028 -2.46096 5.95709
Spine1  12.2957 1.99003 -3.80191
HEad  -28.3097 0.0336021 -5.73
LeftShoulder1  8.22707 -19.7563 -29.2371
LeftArm  -26.3788 -49.3607 -19.5368
LeftForeArm  -6.77909 -23.2675 -5.33595
LeftHand  -0.25398 0.0180481 5.50724
RightShoulder  4.03463 12.7972 18.2079
RightArm  -15.0466 46.415 22.349
RightForeArm  -43.5987 24.6536 7.18507
RightHand  0.0211557 0.212121 0.41526
LeftUpLeg  -50.6983 29.6451 -17.9831
LeftLeg  20.7027 -3.46356 -1.11534
LeftFoot  8.60262 -2.62478 14.5438
LeftToes  1.06245e-005 4.65855e-005 -8.18504e-006
